<svg width="2011" height="2029" xmlns="http://www.w3.org/2000/svg" xmlns:xlink="http://www.w3.org/1999/xlink" overflow="hidden"><defs><clipPath id="clip0"><rect x="827" y="358" width="2011" height="2029"/></clipPath><clipPath id="clip1"><rect x="827" y="357" width="2011" height="1094"/></clipPath><clipPath id="clip2"><rect x="827" y="357" width="2011" height="1094"/></clipPath><clipPath id="clip3"><rect x="827" y="357" width="2011" height="2011"/></clipPath><clipPath id="clip4"><rect x="827" y="1450" width="2011" height="264"/></clipPath><clipPath id="clip5"><rect x="827" y="1450" width="2011" height="264"/></clipPath><clipPath id="clip6"><rect x="827" y="356" width="2011" height="2013"/></clipPath><clipPath id="clip7"><rect x="827" y="1980" width="2011" height="407"/></clipPath><clipPath id="clip8"><rect x="827" y="1980" width="2011" height="407"/></clipPath><clipPath id="clip9"><rect x="827" y="378" width="2011" height="2009"/></clipPath><clipPath id="clip10"><rect x="827" y="1713" width="2011" height="269"/></clipPath><clipPath id="clip11"><rect x="827" y="1713" width="2011" height="269"/></clipPath><clipPath id="clip12"><rect x="827" y="358" width="2011" height="2010"/></clipPath></defs><g clip-path="url(#clip0)" transform="translate(-827 -358)"><g clip-path="url(#clip1)"><g clip-path="url(#clip2)"><g clip-path="url(#clip3)"><path d="M1657.8 1239.16C1657.8 1067.52 1523.83 929.371 1354.29 920.998L1354.29 795.407 349.561 795.407 349.561 1758.27C349.561 1804.32 387.238 1842 433.288 1842L1270.56 1842C1316.61 1842 1354.29 1804.32 1354.29 1758.27L1354.29 1559.42C1523.83 1551.04 1657.8 1410.8 1657.8 1239.16ZM1356.38 1433.83 1356.38 1046.59C1456.85 1054.96 1534.3 1138.69 1534.3 1239.16 1534.3 1339.63 1454.76 1425.45 1356.38 1433.83Z" fill="#FFFFFF" transform="matrix(1.00077 0 0 1 827 357.98)"/><path d="M814.246 387.238C826.805 399.797 833.084 414.449 833.084 431.194 833.084 447.94 826.805 464.685 814.246 475.151 797.5 491.897 797.5 517.015 814.246 533.76 822.619 542.133 833.084 546.319 843.55 546.319 854.016 546.319 864.482 542.133 872.855 533.76 900.066 506.549 916.812 468.872 916.812 429.101 916.812 389.331 902.159 353.747 872.855 326.536 872.855 326.536 872.855 326.536 872.855 326.536 847.737 301.417 847.737 261.647 872.855 238.622 889.6 221.877 889.6 196.759 872.855 180.013 856.109 163.268 830.991 163.268 814.246 180.013 755.637 236.529 755.637 330.722 814.246 387.238 814.246 387.238 814.246 387.238 814.246 387.238Z" fill="#FFFFFF" transform="matrix(1.00077 0 0 1 827 357.98)"/><path d="M1042.4 508.642C1067.52 533.76 1067.52 573.531 1042.4 596.555 1025.66 613.301 1025.66 638.419 1042.4 655.164 1050.77 663.537 1061.24 667.723 1071.71 667.723 1082.17 667.723 1092.64 663.537 1101.01 655.164 1157.53 598.649 1157.53 504.456 1101.01 447.94 1101.01 447.94 1101.01 447.94 1101.01 447.94 1088.45 435.381 1082.17 420.729 1082.17 403.983 1082.17 387.238 1088.45 370.492 1101.01 360.026 1117.76 343.281 1117.76 318.163 1101.01 301.417 1084.27 284.672 1059.15 284.672 1042.4 301.417 1015.19 328.629 998.445 366.306 998.445 406.076 1000.54 445.847 1015.19 481.431 1042.4 508.642 1042.4 508.642 1042.4 508.642 1042.4 508.642Z" fill="#FFFFFF" transform="matrix(1.00077 0 0 1 827 357.98)"/><path d="M604.928 508.642C617.487 521.201 623.767 535.853 623.767 552.599 623.767 569.344 617.487 586.09 604.928 596.555 588.183 613.301 588.183 638.419 604.928 655.164 613.301 663.537 623.767 667.723 634.233 667.723 644.698 667.723 655.164 663.537 663.537 655.164 690.748 627.953 707.494 590.276 707.494 550.506 707.494 510.735 692.842 475.151 663.537 445.847L663.537 445.847C638.419 420.729 638.419 380.958 663.537 357.933 680.283 341.188 680.283 316.07 663.537 299.324 646.792 282.579 621.674 282.579 604.928 299.324 546.319 360.026 546.319 452.126 604.928 508.642 604.928 508.642 604.928 508.642 604.928 508.642Z" fill="#FFFFFF" transform="matrix(1.00077 0 0 1 827 357.98)"/></g></g></g><g clip-path="url(#clip4)"><g clip-path="url(#clip5)"><g clip-path="url(#clip6)"><path d="M1659.07 1240.12C1659.07 1068.34 1525.01 930.088 1355.33 921.708L1355.33 796.021 349.83 796.021 349.83 1759.62C349.83 1805.71 387.536 1843.42 433.622 1843.42L1271.54 1843.42C1317.62 1843.42 1355.33 1805.71 1355.33 1759.62L1355.33 1560.62C1525.01 1552.24 1659.07 1411.89 1659.07 1240.12ZM1357.43 1434.93 1357.43 1047.4C1457.97 1055.78 1535.48 1139.57 1535.48 1240.12 1535.48 1340.67 1455.88 1426.55 1357.43 1434.93Z" fill="#FFFFFF" transform="matrix(1 0 0 1.00039 827 356.712)"/><path d="M814.874 387.536C827.443 400.105 833.727 414.769 833.727 431.527 833.727 448.285 827.443 465.044 814.874 475.518 798.116 492.276 798.116 517.414 814.874 534.172 823.253 542.551 833.727 546.741 844.201 546.741 854.675 546.741 865.149 542.551 873.528 534.172 900.76 506.94 917.519 469.233 917.519 429.432 917.519 389.631 902.855 354.02 873.528 326.788 873.528 326.788 873.528 326.788 873.528 326.788 848.391 301.65 848.391 261.849 873.528 238.806 890.286 222.048 890.286 196.91 873.528 180.152 856.77 163.394 831.632 163.394 814.874 180.152 756.22 236.711 756.22 330.977 814.874 387.536 814.874 387.536 814.874 387.536 814.874 387.536Z" fill="#FFFFFF" transform="matrix(1 0 0 1.00039 827 356.712)"/><path d="M1043.21 509.034C1068.34 534.172 1068.34 573.973 1043.21 597.016 1026.45 613.774 1026.45 638.911 1043.21 655.67 1051.59 664.049 1062.06 668.239 1072.53 668.239 1083.01 668.239 1093.48 664.049 1101.86 655.67 1158.42 599.11 1158.42 504.845 1101.86 448.285 1101.86 448.285 1101.86 448.285 1101.86 448.285 1089.29 435.717 1083.01 421.053 1083.01 404.295 1083.01 387.536 1089.29 370.778 1101.86 360.304 1118.62 343.546 1118.62 318.408 1101.86 301.65 1085.1 284.892 1059.96 284.892 1043.21 301.65 1015.97 328.882 999.216 366.589 999.216 406.39 1001.31 446.191 1015.97 481.802 1043.21 509.034 1043.21 509.034 1043.21 509.034 1043.21 509.034Z" fill="#FFFFFF" transform="matrix(1 0 0 1.00039 827 356.712)"/><path d="M605.395 509.034C617.964 521.603 624.248 536.267 624.248 553.025 624.248 569.783 617.964 586.542 605.395 597.016 588.636 613.774 588.636 638.911 605.395 655.67 613.774 664.049 624.248 668.239 634.722 668.239 645.196 668.239 655.67 664.049 664.049 655.67 691.281 628.438 708.04 590.731 708.04 550.93 708.04 511.129 693.376 475.518 664.049 446.191L664.049 446.191C638.911 421.053 638.911 381.252 664.049 358.209 680.807 341.451 680.807 316.314 664.049 299.555 647.291 282.797 622.153 282.797 605.395 299.555 546.741 360.304 546.741 452.475 605.395 509.034 605.395 509.034 605.395 509.034 605.395 509.034Z" fill="#FFFFFF" transform="matrix(1 0 0 1.00039 827 356.712)"/></g></g></g><g clip-path="url(#clip7)"><g clip-path="url(#clip8)"><g clip-path="url(#clip9)"><path d="M1657.41 1238.87C1657.41 1067.27 1523.48 929.155 1353.97 920.784L1353.97 795.223 349.479 795.223 349.479 1757.86C349.479 1803.9 387.148 1841.57 433.187 1841.57L1270.26 1841.57C1316.3 1841.57 1353.97 1803.9 1353.97 1757.86L1353.97 1559.05C1523.48 1550.68 1657.41 1410.47 1657.41 1238.87ZM1356.06 1433.49 1356.06 1046.35C1456.51 1054.72 1533.94 1138.42 1533.94 1238.87 1533.94 1339.32 1454.42 1425.12 1356.06 1433.49Z" fill="#FFFFFF" transform="matrix(1.001 0 0 1 827 378.016)"/><path d="M814.057 387.148C826.613 399.704 832.891 414.353 832.891 431.094 832.891 447.836 826.613 464.577 814.057 475.041 797.315 491.782 797.315 516.895 814.057 533.636 822.428 542.007 832.891 546.192 843.355 546.192 853.818 546.192 864.281 542.007 872.652 533.636 899.857 506.431 916.599 468.763 916.599 429.002 916.599 389.241 901.95 353.665 872.652 326.46 872.652 326.46 872.652 326.46 872.652 326.46 847.54 301.348 847.54 261.586 872.652 238.567 889.394 221.825 889.394 196.713 872.652 179.971 855.911 163.23 830.798 163.23 814.057 179.971 755.461 236.474 755.461 330.645 814.057 387.148 814.057 387.148 814.057 387.148 814.057 387.148Z" fill="#FFFFFF" transform="matrix(1.001 0 0 1 827 378.016)"/><path d="M1042.16 508.524C1067.27 533.636 1067.27 573.397 1042.16 596.417 1025.42 613.159 1025.42 638.271 1042.16 655.012 1050.53 663.383 1060.99 667.568 1071.46 667.568 1081.92 667.568 1092.38 663.383 1100.76 655.012 1157.26 598.51 1157.26 504.339 1100.76 447.836 1100.76 447.836 1100.76 447.836 1100.76 447.836 1088.2 435.28 1081.92 420.631 1081.92 403.889 1081.92 387.148 1088.2 370.406 1100.76 359.943 1117.5 343.201 1117.5 318.089 1100.76 301.348 1084.01 284.606 1058.9 284.606 1042.16 301.348 1014.96 328.553 998.214 366.221 998.214 405.982 1000.31 445.743 1014.96 481.319 1042.16 508.524 1042.16 508.524 1042.16 508.524 1042.16 508.524Z" fill="#FFFFFF" transform="matrix(1.001 0 0 1 827 378.016)"/><path d="M604.788 508.524C617.344 521.08 623.622 535.729 623.622 552.47 623.622 569.212 617.344 585.954 604.788 596.417 588.046 613.159 588.046 638.271 604.788 655.012 613.159 663.383 623.622 667.568 634.085 667.568 644.549 667.568 655.012 663.383 663.383 655.012 690.588 627.807 707.33 590.139 707.33 550.378 707.33 510.617 692.681 475.041 663.383 445.743L663.383 445.743C638.271 420.631 638.271 380.87 663.383 357.85 680.125 341.109 680.125 315.996 663.383 299.255 646.642 282.513 621.529 282.513 604.788 299.255 546.192 359.943 546.192 452.021 604.788 508.524 604.788 508.524 604.788 508.524 604.788 508.524Z" fill="#FFFFFF" transform="matrix(1.001 0 0 1 827 378.016)"/></g></g></g><g clip-path="url(#clip10)"><g clip-path="url(#clip11)"><g clip-path="url(#clip12)"><path d="M1657.45 1238.9C1657.45 1067.3 1523.51 929.176 1354 920.805L1354 795.241 349.488 795.241 349.488 1757.9C349.488 1803.94 387.157 1841.61 433.197 1841.61L1270.29 1841.61C1316.33 1841.61 1354 1803.94 1354 1757.9L1354 1559.09C1523.51 1550.72 1657.45 1410.51 1657.45 1238.9ZM1356.1 1433.53 1356.1 1046.37C1456.55 1054.74 1533.98 1138.45 1533.98 1238.9 1533.98 1339.35 1454.45 1425.16 1356.1 1433.53Z" fill="#FFFFFF" transform="matrix(1.00098 0 0 1 827 358.568)"/><path d="M814.076 387.157C826.632 399.713 832.91 414.362 832.91 431.104 832.91 447.846 826.632 464.588 814.076 475.052 797.334 491.794 797.334 516.907 814.076 533.649 822.447 542.02 832.91 546.205 843.374 546.205 853.838 546.205 864.301 542.02 872.672 533.649 899.878 506.443 916.62 468.774 916.62 429.012 916.62 389.25 901.971 353.673 872.672 326.467 872.672 326.467 872.672 326.467 872.672 326.467 847.56 301.354 847.56 261.592 872.672 238.572 889.414 221.83 889.414 196.718 872.672 179.976 855.931 163.234 830.818 163.234 814.076 179.976 755.479 236.48 755.479 330.653 814.076 387.157 814.076 387.157 814.076 387.157 814.076 387.157Z" fill="#FFFFFF" transform="matrix(1.00098 0 0 1 827 358.568)"/><path d="M1042.18 508.536C1067.3 533.649 1067.3 573.411 1042.18 596.431 1025.44 613.173 1025.44 638.286 1042.18 655.028 1050.56 663.398 1061.02 667.584 1071.48 667.584 1081.95 667.584 1092.41 663.398 1100.78 655.028 1157.29 598.524 1157.29 504.35 1100.78 447.846 1100.78 447.846 1100.78 447.846 1100.78 447.846 1088.22 435.29 1081.95 420.641 1081.95 403.899 1081.95 387.157 1088.22 370.415 1100.78 359.951 1117.52 343.209 1117.52 318.096 1100.78 301.354 1084.04 284.613 1058.93 284.613 1042.18 301.354 1014.98 328.56 998.237 366.229 998.237 405.991 1000.33 445.754 1014.98 481.33 1042.18 508.536 1042.18 508.536 1042.18 508.536 1042.18 508.536Z" fill="#FFFFFF" transform="matrix(1.00098 0 0 1 827 358.568)"/><path d="M604.802 508.536C617.358 521.092 623.636 535.741 623.636 552.483 623.636 569.225 617.358 585.967 604.802 596.431 588.06 613.173 588.06 638.286 604.802 655.028 613.173 663.398 623.636 667.584 634.1 667.584 644.564 667.584 655.028 663.398 663.398 655.028 690.604 627.822 707.346 590.153 707.346 550.391 707.346 510.628 692.697 475.052 663.398 445.754L663.398 445.754C638.286 420.641 638.286 380.879 663.398 357.858 680.14 341.117 680.14 316.004 663.398 299.262 646.657 282.52 621.544 282.52 604.802 299.262 546.205 359.951 546.205 452.032 604.802 508.536 604.802 508.536 604.802 508.536 604.802 508.536Z" fill="#FFFFFF" transform="matrix(1.00098 0 0 1 827 358.568)"/></g></g></g></g></svg>