<svg width="96" height="96" xmlns="http://www.w3.org/2000/svg" xmlns:xlink="http://www.w3.org/1999/xlink" overflow="hidden"><defs><clipPath id="clip0"><rect x="244" y="430" width="96" height="96"/></clipPath></defs><g clip-path="url(#clip0)" transform="translate(-244 -430)"><path d="M308 460C308 468.837 300.837 476 292 476 283.163 476 276 468.837 276 460 276 451.163 283.163 444 292 444 300.837 444 308 451.163 308 460Z"/><path d="M324 512 324 496C324 493.6 322.8 491.2 320.8 489.6 316.4 486 310.8 483.6 305.2 482 301.2 480.8 296.8 480 292 480 287.6 480 283.2 480.8 278.8 482 273.2 483.6 267.6 486.4 263.2 489.6 261.2 491.2 260 493.6 260 496L260 512 324 512Z"/></g></svg>