<svg width="96" height="96" xmlns="http://www.w3.org/2000/svg" xmlns:xlink="http://www.w3.org/1999/xlink" overflow="hidden"><defs><clipPath id="clip0"><rect x="783" y="452" width="96" height="96"/></clipPath></defs><g clip-path="url(#clip0)" transform="translate(-783 -452)"><path d="M847 472C847 466.477 842.523 462 837 462L825 462C819.477 462 815 466.477 815 472L815 499 847 499Z"/><path d="M858 487 853 487C851.343 487 850 488.343 850 490L850 490C850.002 491.268 850.804 492.396 852 492.816L852 503.043C851.998 504.068 851.464 505.017 850.59 505.552 849.886 504.021 848.356 503.039 846.671 503.037L815.328 503.037C813.643 503.039 812.114 504.021 811.41 505.552 810.536 505.017 810.002 504.068 810 503.043L810 492.816C811.196 492.396 811.997 491.268 812 490L812 490C812 488.343 810.657 487 809 487L804 487C802.343 487 801 488.343 801 490L801 490C801 491.657 802.343 493 804 493L806 493 806 503.043C806.004 506.367 808.356 509.224 811.617 509.868 812.389 511.186 813.801 511.997 815.328 512L829 512 829 524 821.11 524C817.307 524.005 814.032 526.682 813.271 530.408 811.28 531.365 810.441 533.754 811.397 535.746 812.354 537.737 814.744 538.576 816.735 537.619 818.726 536.663 819.565 534.273 818.609 532.282 818.317 531.674 817.876 531.15 817.327 530.758 817.86 529.118 819.386 528.006 821.11 528L829 528 829 530.555C827.087 531.66 826.431 534.106 827.536 536.019 828.641 537.932 831.087 538.588 833 537.483 834.913 536.379 835.569 533.932 834.464 532.019 834.113 531.411 833.608 530.906 833 530.555L833 528 841 528C842.697 528.005 844.205 529.082 844.76 530.686 842.913 531.914 842.412 534.407 843.64 536.254 844.868 538.101 847.361 538.602 849.208 537.374 851.055 536.146 851.556 533.653 850.328 531.806 849.955 531.245 849.447 530.787 848.85 530.474 848.116 526.718 844.827 524.006 841 524L833 524 833 512 846.671 512C848.198 511.997 849.61 511.186 850.382 509.868 853.643 509.224 855.995 506.367 856 503.043L856 493 858 493C859.657 493 861 491.657 861 490L861 490C861 488.343 859.657 487 858 487Z"/></g></svg>